<?xml version="1.0" standalone="no"?><!DOCTYPE svg PUBLIC "-//W3C//DTD SVG 1.1//EN" "http://www.w3.org/Graphics/SVG/1.1/DTD/svg11.dtd"><svg t="1715826852312" class="icon" viewBox="0 0 1024 1024" version="1.1" xmlns="http://www.w3.org/2000/svg" p-id="1530" xmlns:xlink="http://www.w3.org/1999/xlink" width="200" height="200"><path d="M326.352 166.592h660.48c21.248 0 37.248 18.432 37.248 42.816v605.12c0 24.32-16 42.752-37.12 42.752H324.688a35.84 35.84 0 0 1-32.064-20.672L11.92 541.44c-15.808-16.64-15.808-46.912 0-63.488l285.568-300.416a34.56 34.56 0 0 1 28.8-10.944z m636.992 60.608H334.032L65.552 509.632l272.704 286.912h625.088V227.2z m-519.04 119.424l5.312 4.48 106.176 106.112 106.24-106.112a38.4 38.4 0 0 1 58.688 48.96l-4.48 5.312-106.176 106.176 106.24 106.24a38.4 38.4 0 0 1-48.96 58.688l-5.376-4.48-106.176-106.176-106.176 106.24a38.4 38.4 0 0 1-58.752-48.96l4.48-5.376 106.112-106.176-106.112-106.176a38.4 38.4 0 0 1 48.96-58.752z" fill="#282F3C" p-id="1531"></path></svg>